<?xml version="1.0" encoding="utf-8"?>
<!-- Generator: Adobe Illustrator 19.0.0, SVG Export Plug-In . SVG Version: 6.00 Build 0)  -->
<svg version="1.1" xmlns="http://www.w3.org/2000/svg" xmlns:xlink="http://www.w3.org/1999/xlink" x="0px" y="0px"
	 viewBox="0 0 612 792" style="enable-background:new 0 0 612 792;" xml:space="preserve">
<style type="text/css">
	.st0{fill:#63353F;}
</style>
<g id="Layer_1">
	<g id="XMLID_2_">
		<path id="XMLID_38_" class="st0" d="M282.5,763.4c-41.2,5-74.4-11.5-103.9-37.5c-22.9-20.3-39.7-44.8-46.8-75.1
			c-3.4-14.5-3.7-29.2,1.6-43.3c8.2-21.7,24.7-33.1,47.2-36.5c1.6-0.2,3.3-0.4,5-0.6c1.5-0.2,2.9-0.3,4.8-0.6
			c-1.2-7.8-2.7-15.4-3.5-23.1c-1.1-10.3-1.9-20.6-2.4-30.9c-0.2-3.6-1.2-5.5-4.4-7.3c-47.2-26.4-61.1-89.7-29.2-132.6
			c20.1-27,56.7-38,88-26.2c3,1.1,4.1-0.2,5.7-2c23.3-26.2,51-46,83.2-59.7c27.3-11.6,55.9-16.7,85.3-19.2
			c37.7-3.2,73.3,5.7,108.7,16.8c41.4,12.9,77.2,34.7,107.2,66c1.3,1.3,4.1,2.2,6,1.9c53.4-8.5,101.2,25,109.2,78
			c5.2,34.8-7.5,63.6-35.6,84.8c-5.4,4.1-6.1,7.7-5.3,13.5c3.1,23.1,2.3,46.2-3.5,68.9c-10.6,41.1-35.5,71.2-72.6,90.8
			c-15,7.9-31.6,13-47.4,19.4c-1.1,0.4-2.2,0.7-3.8,1.3c2.8,4.4,5.5,8.5,8.1,12.6c15.7,25.2,30.1,51.1,39.7,79.3
			c8.4,24.6,6,48-11.3,68.4c-20.8,24.5-54.8,19.9-71.4-1.3c-0.9-1.2-1.9-2.3-3.1-3.7c-13.3,9.8-28.1,16.4-43.9,20.9
			c-1.3,0.4-2.6,0.8-3.9,1c-9.7,1.1-17.2,5.4-24.3,12.3c-10.8,10.3-25.1,14.1-39.6,16.1c-22.6,3-44.5,0.2-65.2-9.6
			c-1.7-0.8-3.2-1.7-4.9-2.5c-8.8-4.2-15.2-10.2-15-20.9c0-3.5-1.6-4.3-5.1-5c-8.5-1.7-16.8-4.5-26-7c-6.2,8.8-16.1,14.4-28,16.6
			c-10.1,1.8-19.9,0.5-29.3-3.7c-21.9-9.6-34.8-31.1-33-54.8c2-26,27.8-46,52.7-40.7c2.2,0.5,4.3,1.4,6.6,2.1
			C280.4,781.4,281.4,772.6,282.5,763.4z M437,710.1c28.1-2.5,64.6-5.1,101-9.3c28.1-3.3,55-11.6,79.8-25.7
			c31.5-17.8,53.6-43.3,63.7-78.5c7.4-25.8,7.3-52,3.1-78.2c-6.1-38-19.8-73.5-37.4-107.5c-7.1-13.7-14.2-27.7-23.4-39.9
			c-15.1-19.9-34.3-36.2-56.3-47.8c-51.1-27.1-104.8-43.7-163.8-37.1c-28.3,3.2-55.7,9.4-80.7,22.7
			c-78.8,42-117.4,109.2-120.8,197.4c-1.2,32.1,5.4,63.1,16,93.4c10.8,30.9,28.9,55.2,58.2,71.3C323.8,697,374.8,708.5,437,710.1z
			 M479,874.6c5.2-1.4,9.7-2.4,14.2-3.7c13.1-4.1,25.6-9.5,36.3-18.2c1.2-1,2.5-2.9,2.4-4.3c-0.5-6.1-1-12.3-2.5-18.2
			c-4.7-19.5-9-39.2-15-58.4c-5.1-16.5-11.5-32.6-24.6-45.1c-3.6-3.4-6.9-4.8-11.8-4.3c-13,1.4-26.1,2.9-39.2,3.4
			c-37.9,1.3-75-4.1-111.3-15c-3.6-1.1-5.5-0.6-7.6,2.6c-14.9,22.8-23.3,47.8-24.8,74.9c-1,18.5,1.3,36.6,10.8,53
			c7.1,12.1,17,20.3,31.6,21.7c3.1,0.3,4.5-0.6,5.8-3.7c2.3-5.6,4.9-11.4,8.7-16.1c17.6-21.7,41.1-29.7,68.3-27.4
			c19.3,1.6,35.9,9.3,48.2,25C476.1,850.3,479.2,861.4,479,874.6z"/>
		<path id="XMLID_35_" class="st0" d="M421.3,473.5c0.5,12.8-3.5,35.6-10.1,57.9c-9.8,32.9-33.3,51.8-65.9,59.7
			c-41.6,10.1-86.2-8.1-109.8-42.1c-8-11.5-10.8-23.4-11.4-36.3c-2.8-59.4,33.8-115.8,89.1-137.5c26-10.2,52.5-11.6,79-1.4
			c10.8,4.2,16,12.9,19.4,23.3C418.8,418.4,420.7,440.6,421.3,473.5z M281.4,466c27.1-3.2,49.6,4.8,68.7,23.7
			C342.4,460.3,303.8,452.5,281.4,466z"/>
		<path id="XMLID_32_" class="st0" d="M664.7,503.4c-0.7,7.1-1.5,13.5-1.9,20c-0.9,12.5-8.6,21.2-15.9,30.2
			c-33.8,41.4-100.2,45.8-138.8,9.4c-13.6-12.9-20.2-29.2-24-47.2c-6.2-29.2-7-58.4-2-87.8c1.6-9.3,4.3-18.4,6.9-27.5
			c3.9-13.6,13.4-21.1,27.1-24.3c29.7-7.1,57.4-1.9,82.9,14C640.7,416.3,662.2,454.7,664.7,503.4z M545.3,489.8
			c18.5-18.7,39.8-24.8,64-23C583.4,453.9,553.7,464.3,545.3,489.8z"/>
		<path id="XMLID_31_" class="st0" d="M435.1,635.7c0-12.4,0.1-24-0.1-35.6c0-1.2-1.8-2.6-3-3.4c-7.8-5.1-14.4-11.3-17.5-20.4
			c-5.2-15,3.8-28.2,19.7-27.9c5.9,0.1,11.8,2.9,17.8,4.2c2.2,0.5,4.6,0.6,6.8,0.2c3.9-0.7,7.7-2.5,11.6-2.6
			c13.5-0.6,21.7,10,18,23.1c-3.1,11.3-10.6,19.1-20.7,24.5c-2.7,1.5-4.1,3-3.8,6.1c0.8,9.3,1.4,18.5,2.2,27.8
			c0.4,4.2,2.7,6,6.7,4.4c8.6-3.4,17.2-6.9,25.7-10.4c2-0.8,3.7-2.4,5.7-3.1c5.2-1.6,9.6,2.6,9.5,9c-0.3,14.2-6.2,25.8-17.2,34.6
			c-30.5,24.2-81.7,18-105-13.1c-4.1-5.5-6.3-12.7-8.7-19.3c-1.5-3.9-0.9-8.2,3.2-10.6c4.1-2.4,8-3.6,13.1-1.1
			c9.7,4.7,19.9,8.4,29.9,12.4C430.3,634.9,431.8,635,435.1,635.7z"/>
	</g>
</g>
<g id="Layer_2">
	<path id="XMLID_70_" class="st0" d="M157.9,221.4c-3.4,2-6,3.8-8.8,5.2c-8.7,4.2-17.4,8.4-26.3,12.2c-3.3,1.4-4.6,3-3.9,6.7
		c1.4,7.9,3,15.8,3.4,23.7c0.3,5.9-0.2,12-1.7,17.7c-2.3,8.7-7.9,15.1-17.1,17.1c-9.2,2-16.6-2-22.8-8.5c-5.8-6.1-9-13.8-10.4-21.9
		c-6-35.3-11.7-70.6-17.3-106c-1.7-10.5-0.1-20.5,8-28.1c7.1-6.7,15.7-8.7,25-5.7c10.3,3.4,16.1,11,18.2,21.4c1.8,9,3,18.1,4.3,27.1
		c0.5,3.6,1.7,4.5,5.6,3.6c11.3-2.6,22.7-4.7,34.2-6.6c3.4-0.6,3.1-2.3,2.8-4.5c-1.4-10.9-3.4-21.8-4.3-32.7
		c-0.5-6.3-0.5-13.2,1.3-19.2c3.2-10.7,11.4-16.7,22.7-17.2c11.3-0.4,19.5,5.2,24.2,15.3c2.1,4.4,3.2,9.5,4,14.4
		c4.3,29.2,8.4,58.4,12.5,87.6c1.2,8.3,1.1,16.6-2.1,24.6c-7.3,18.2-28.1,21.4-40.5,6.2c-6-7.4-8.5-16.1-10-25.3
		C158.9,226.4,158.5,224.4,157.9,221.4z"/>
	<path id="XMLID_69_" class="st0" d="M224.3,193.4c0-8-0.3-16,0.1-24c0.6-14.2,9.9-25.2,22.3-26.8c14.5-1.9,27,7.6,29.4,22.9
		c1,6.6,1.1,13.3,1.5,19.9c0.7,13,1.5,26,1.6,38.9c0,5-1.2,10.4-3.3,14.9c-8.3,17.6-29,19.5-41.2,4.3c-6-7.5-7.7-16.5-8.5-25.7
		c-0.7-8.1-0.9-16.3-1.4-24.4C224.7,193.4,224.5,193.4,224.3,193.4z"/>
	<path id="XMLID_68_" class="st0" d="M336.3,151.7c2.5-18.9,4.3-36,7.2-52.9c2.9-16.5,16-26,30.5-23.2c11.2,2.1,19.6,11.2,21,23.1
		c0.4,3,0.5,6,0.1,9c-2,16.4-3.8,32.8-6.6,49c-1.1,6.2-3.9,12.6-7.6,17.6c-11.1,15.4-31.5,13.5-39.7-3.6
		C338.3,164.3,337.6,157,336.3,151.7z"/>
	<path id="XMLID_67_" class="st0" d="M274.1,101c0,14-10.9,25.1-25,25.2c-13.8,0.1-25.2-11.4-25.2-25.6c0-14.1,10.9-25.3,24.7-25.4
		C262.9,75,274.1,86.4,274.1,101z"/>
	<path id="XMLID_66_" class="st0" d="M347.6,201c15.3-0.1,27.6,11.9,27.7,27.1c0.1,15.1-12.2,27.6-27.3,27.6
		c-15.2,0-27.4-12.2-27.4-27.5C320.6,213.2,332.6,201.1,347.6,201z"/>
</g>
</svg>
